. 
  
http://www.torrenting.com/        :     Greatest Movie Tracker on The Net!!!
 
http://www.Torrenting.com          :     Once & For all ;)


               www . Torrenting . Com 

(((((((((((((= Enjoy No RAR releases =))))))))))))))))))))


...................................NFO:....................................

.








































          
          
              
              
                    
                    
                    
                    

Sex.And.The.Single.Girl.1964.DVDRip.x264.AC3-SiC

Poster:
[img]https://lh3.googleusercontent.com/-dYlIO6QsnRM/Tkwn6O-aQnI/AAAAAAAAARM/cnBNCTuzvzE/s800/sex-and-the-single-girl-movie-poster-1965-1020204798.jpg[/img]

IMDB Link: 
http://www.imdb.com/title/tt0058580/

Description:
A womanizing reporter for a sleazy tabloid magazine impersonates his hen-pecked neighbor in order to get an expose on renowned psychologist Helen Gurley Brown.  

MediaInfo:
General
Complete name                    : Sex.And.The.Single.Girl.1964.DVDRip.x264.AC3-SiC.mkv
Format                           : Matroska
Format version                   : Version 2
File size                        : 1.83 GiB
Duration                         : 1h 54mn
Overall bit rate                 : 2 293 Kbps
Encoded date                     : UTC 2011-08-17 15:40:04
Writing application              : mkvmerge v4.9.1 ('Ich will') built on Jul 11 2011 23:53:15
Writing library                  : libebml v1.2.1 + libmatroska v1.1.1

Video
ID                               : 2
Format                           : AVC
Format/Info                      : Advanced Video Codec
Format profile                   : High@L4.1
Format settings, CABAC           : Yes
Format settings, ReFrames        : 4 frames
Muxing mode                      : Header stripping
Codec ID                         : V_MPEG4/ISO/AVC
Duration                         : 1h 54mn
Bit rate                         : 2 100 Kbps
Width                            : 720 pixels
Height                           : 480 pixels
Display aspect ratio             : 16:9
Frame rate                       : 23.976 fps
Standard                         : NTSC
Color space                      : YUV
Chroma subsampling               : 4:2:0
Bit depth                        : 8 bits
Scan type                        : Progressive
Bits/(Pixel*Frame)               : 0.253
Stream size                      : 1.64 GiB (90%)
Writing library                  : x264 core 115 r1995 c1e60b9
Encoding settings                : cabac=1 / ref=3 / deblock=1:0:0 / analyse=0x3:0x133 / me=umh / subme=7 / psy=1 / psy_rd=1.00:0.00 / mixed_ref=1 / me_range=16 / chroma_me=1 / trellis=1 / 8x8dct=1 / cqm=0 / deadzone=21,11 / fast_pskip=1 / chroma_qp_offset=-2 / threads=9 / sliced_threads=0 / nr=0 / decimate=1 / interlaced=0 / bluray_compat=0 / constrained_intra=0 / bframes=3 / b_pyramid=2 / b_adapt=1 / b_bias=0 / direct=1 / weightb=1 / open_gop=1 / weightp=2 / keyint=250 / keyint_min=23 / scenecut=40 / intra_refresh=0 / rc_lookahead=40 / rc=2pass / mbtree=1 / bitrate=2100 / ratetol=1.0 / qcomp=0.60 / qpmin=0 / qpmax=69 / qpstep=4 / cplxblur=20.0 / qblur=0.5 / ip_ratio=1.40 / aq=1:1.00
Language                         : English

Audio
ID                               : 1
Format                           : AC-3
Format/Info                      : Audio Coding 3
Mode extension                   : CM (complete main)
Muxing mode                      : Header stripping
Codec ID                         : A_AC3
Duration                         : 1h 54mn
Bit rate mode                    : Constant
Bit rate                         : 192 Kbps
Channel(s)                       : 1 channel
Channel positions                : Front: C
Sampling rate                    : 48.0 KHz
Bit depth                        : 16 bits
Compression mode                 : Lossy
Delay relative to video          : 7ms
Stream size                      : 157 MiB (8%)




Screenshots:
[img]https://lh4.googleusercontent.com/-O4ta6L-2hR4/Tkwn6cMecuI/AAAAAAAAARQ/B_ABz9YziUQ/s800/vlcsnap-2011-08-17-16h37m14s87.png[/img]
[img]https://lh4.googleusercontent.com/-S2ADlhGVbvo/Tkwn6UC-ndI/AAAAAAAAARU/xxnvRcvp1-0/s800/vlcsnap-2011-08-17-16h37m31s3.png[/img]
[img]https://lh5.googleusercontent.com/-E7x8VSoVr4w/Tkwn63mZqEI/AAAAAAAAARY/aTKpAKQ55lY/s800/vlcsnap-2011-08-17-16h37m46s128.png[/img]
[img]https://lh5.googleusercontent.com/-cXOw-QrNtv0/Tkwn7T-LF-I/AAAAAAAAARc/pX9Cv4PSjfM/s800/vlcsnap-2011-08-17-16h38m07s105.png[/img]
[img]https://lh3.googleusercontent.com/-Q4wzBAorjsA/Tkwn7jvQc-I/AAAAAAAAARg/HNrvb5r2ka0/s800/vlcsnap-2011-08-17-16h38m16s200.png[/img]

Note: N/A

Encoder: Brian

Enjoy!

Respects to CaptainHomey, Cyanide, CM8, Rx, THC, ELEKTRI4KA, 
Killerhz, PA, YeFsTe, BoxSlots, MrRep and everyone in the struggle...